<svg width="64" height="58" viewBox="0 0 64 58" fill="none" xmlns="http://www.w3.org/2000/svg">
<path d="M63.0654 32C63.5816 32 64.0014 31.5814 63.9864 31.0655C63.8352 25.8901 62.4301 20.8235 59.8858 16.3034C57.1885 11.5116 53.302 7.49567 48.601 4.643C43.9001 1.79032 38.5434 0.197152 33.0475 0.0171498C27.5517 -0.162853 22.1022 1.07639 17.2246 3.61534C12.3471 6.15429 8.20612 9.90729 5.20109 14.5123C2.19606 19.1174 0.428393 24.4191 0.0685809 29.9061C-0.291231 35.3931 0.768956 40.8802 3.14688 45.8383C5.38996 50.5151 8.73416 54.5723 12.8868 57.6649C13.3008 57.9732 13.8845 57.8693 14.1805 57.4465C14.4766 57.0237 14.3729 56.4422 13.9595 56.1331C10.0697 53.2253 6.93641 49.4172 4.83224 45.03C2.59321 40.3615 1.59495 35.1949 1.93374 30.0284C2.27254 24.8619 3.93695 19.8699 6.76645 15.5338C9.59596 11.1978 13.4951 7.66398 18.0877 5.27333C22.6803 2.88268 27.8115 1.71583 32.9863 1.88532C38.1611 2.0548 43.205 3.55491 47.6313 6.24096C52.0577 8.927 55.7172 12.7083 58.2569 17.2203C60.6437 21.4604 61.9657 26.2113 62.1163 31.0655C62.1323 31.5814 62.5493 32 63.0654 32Z" fill="url(#paint0_linear_2584_1312)"/>
<defs>
<linearGradient id="paint0_linear_2584_1312" x1="13.5" y1="4.5" x2="66" y2="38.5" gradientUnits="userSpaceOnUse">
<stop stop-color="white"/>
<stop offset="1" stop-color="#D9D9D9" stop-opacity="0"/>
</linearGradient>
</defs>
</svg>
